<svg viewBox="0 0 50 50" fill="none" xmlns="http://www.w3.org/2000/svg">
    <path
        d="M22.7904 24.9998L9.83103 12.0435C9.68575 11.8983 9.57051 11.7258 9.49189 11.536C9.41327 11.3462 9.3728 11.1427 9.3728 10.9373C9.3728 10.7318 9.41327 10.5284 9.49189 10.3386C9.57051 10.1488 9.68575 9.9763 9.83103 9.83103C9.9763 9.68575 10.1488 9.57051 10.3386 9.49189C10.5284 9.41327 10.7318 9.3728 10.9373 9.3728C11.1427 9.3728 11.3462 9.41327 11.536 9.49189C11.7258 9.57051 11.8983 9.68575 12.0435 9.83103L24.9998 22.7904L37.956 9.83103C38.2494 9.53763 38.6474 9.3728 39.0623 9.3728C39.4772 9.3728 39.8751 9.53763 40.1685 9.83103C40.4619 10.1244 40.6267 10.5224 40.6267 10.9373C40.6267 11.3522 40.4619 11.7501 40.1685 12.0435L27.2091 24.9998L40.1685 37.956C40.4619 38.2494 40.6267 38.6474 40.6267 39.0623C40.6267 39.4772 40.4619 39.8751 40.1685 40.1685C39.8751 40.4619 39.4772 40.6267 39.0623 40.6267C38.6474 40.6267 38.2494 40.4619 37.956 40.1685L24.9998 27.2091L12.0435 40.1685C11.7501 40.4619 11.3522 40.6267 10.9373 40.6267C10.5224 40.6267 10.1244 40.4619 9.83103 40.1685C9.53763 39.8751 9.3728 39.4772 9.3728 39.0623C9.3728 38.6474 9.53763 38.2494 9.83103 37.956L22.7904 24.9998Z"
        fill="#0B7373" />
</svg>