<svg viewBox="0 0 50 50" fill="none" xmlns="http://www.w3.org/2000/svg">
    <g clip-path="url(#clip0_1432_64)">
        <path
            d="M13.2825 13.584L13.4227 13.4227C13.6665 13.1788 13.9897 13.0305 14.3336 13.0048C14.6775 12.9791 15.0192 13.0777 15.2966 13.2825L15.4578 13.4227L25 22.9629L34.5422 13.4208C34.7862 13.1772 35.1096 13.0293 35.4534 13.0039C35.7973 12.9785 36.1389 13.0774 36.416 13.2825L36.5773 13.4227C36.8212 13.6665 36.9694 13.9897 36.9952 14.3336C37.0209 14.6775 36.9223 15.0192 36.7175 15.2966L36.5773 15.4578L27.0371 25L36.5792 34.5422C36.8228 34.7862 36.9707 35.1096 36.9961 35.4534C37.0215 35.7973 36.9226 36.1389 36.7175 36.416L36.5773 36.5773C36.3335 36.8212 36.0103 36.9694 35.6664 36.9952C35.3225 37.0209 34.9808 36.9223 34.7034 36.7175L34.5422 36.5773L25 27.0371L15.4578 36.5792C15.2138 36.8228 14.8904 36.9707 14.5466 36.9961C14.2027 37.0215 13.8611 36.9226 13.584 36.7175L13.4227 36.5773C13.1788 36.3335 13.0305 36.0103 13.0048 35.6664C12.9791 35.3225 13.0777 34.9808 13.2825 34.7034L13.4227 34.5422L22.9629 25L13.4208 15.4578C13.1772 15.2138 13.0293 14.8904 13.0039 14.5466C12.9785 14.2027 13.0774 13.8611 13.2825 13.584Z"
            fill="#0B7373" />
        <path
            d="M49 25C49 11.7452 38.2548 1 25 1C11.7452 1 1 11.7452 1 25C1 38.2548 11.7452 49 25 49C38.2548 49 49 38.2548 49 25Z"
            stroke="#0B7373" stroke-width="2" />
    </g>
    <defs>
        <clipPath id="clip0_1432_64">
            <rect width="50" height="50" fill="white" />
        </clipPath>
    </defs>
</svg>